<svg xmlns="http://www.w3.org/2000/svg" viewBox="0 0 60 80.29">
<defs>
    <style>.cls-1{fill:#c1272d;}</style>
</defs>
    <polygon class="cls-1" points="27 29.73 38.37 18.38 50 30.02 50 50.3 38 62.3 38 35.7 27 46.7 27 53.3 15 65.3 15 58.7 12 61.7 12 44.73 15 41.73 15 24.7 27 12.71 27 29.73"/>
    <polygon class="cls-1" points="11.4 62.31 12 61.7 12 68.3 0 80.3 0 18.3 12 18.3 12 44.73 2.92 53.83 11.4 62.31"/>
    <polygon class="cls-1" points="36.96 0 60 23.04 60 40.01 50 30.01 50 18.3 38.44 18.3 38.37 18.37 28.47 8.48 36.96 0"/>
</svg>