<svg xmlns="http://www.w3.org/2000/svg" viewBox="0 0 110 110"><defs><style>.cls-1{fill:#c1272d;}.cls-2{fill:#fff;}</style></defs><title>Asset 14@4x-tape</title><g id="Layer_2" data-name="Layer 2"><g id="Data"><rect class="cls-1" width="110" height="110"/><polygon class="cls-2" points="52 44.59 63.37 33.23 75 44.87 75 65.15 63 77.15 63 50.56 52 61.56 52 68.15 40 80.15 40 73.56 37 76.56 37 59.59 40 56.59 40 39.56 52 27.56 52 44.59"/><polygon class="cls-2" points="36.4 77.17 37 76.56 37 83.15 25 95.15 25 33.15 37 33.15 37 59.59 27.92 68.68 36.4 77.17"/><polygon class="cls-2" points="61.96 14.85 85 37.89 85 54.86 75 44.86 75 33.15 63.44 33.15 63.37 33.22 53.47 23.33 61.96 14.85"/></g></g></svg>